<svg width="705" height="142" viewBox="0 0 705 142" fill="none" xmlns="http://www.w3.org/2000/svg">
<path fill-rule="evenodd" clip-rule="evenodd" d="M136.122 100.643H126.342V86.1676H136.122C138 86.2304 139.78 87.0205 141.086 88.371C142.392 89.7214 143.122 91.5265 143.122 93.4052C143.122 95.2839 142.392 97.089 141.086 98.4395C139.78 99.7899 138 100.58 136.122 100.643V100.643ZM136.122 81.0668H126.342V70.6867H145.14V65.5778H121.006V105.752H136.122C139.342 105.669 142.402 104.332 144.65 102.026C146.898 99.7194 148.157 96.626 148.157 93.4052C148.157 90.1844 146.898 87.091 144.65 84.7846C142.402 82.4782 139.342 81.1412 136.122 81.0587V81.0668Z" fill="#3F4C54"/>
<path fill-rule="evenodd" clip-rule="evenodd" d="M167.757 101.38C165.734 101.391 163.753 100.802 162.065 99.6858C160.377 98.5699 159.059 96.978 158.277 95.112C157.495 93.2459 157.284 91.1897 157.672 89.2039C158.06 87.2181 159.028 85.3922 160.455 83.9575C161.882 82.5228 163.702 81.544 165.686 81.1451C167.67 80.7462 169.727 80.9452 171.597 81.7169C173.468 82.4886 175.067 83.7982 176.192 85.4797C177.317 87.1612 177.918 89.139 177.918 91.1623C177.937 92.5044 177.687 93.8367 177.183 95.081C176.68 96.3252 175.933 97.4564 174.987 98.4082C174.04 99.36 172.913 100.113 171.672 100.623C170.43 101.134 169.099 101.391 167.757 101.38V101.38ZM177.918 80.5552C176.614 79.0774 175.005 77.8998 173.202 77.1032C171.398 76.3067 169.444 75.9102 167.473 75.9409C165.514 75.9421 163.574 76.3302 161.765 77.0831C159.956 77.836 158.313 78.9387 156.931 80.3281C154.097 83.2203 152.509 87.1086 152.509 91.1582C152.509 95.2079 154.097 99.0961 156.931 101.988C158.311 103.381 159.953 104.486 161.763 105.24C163.572 105.995 165.513 106.383 167.473 106.384C169.444 106.413 171.398 106.016 173.201 105.219C175.003 104.423 176.613 103.246 177.918 101.769V105.719H183.027V76.6383H177.918V80.5552Z" fill="#3F4C54"/>
<path fill-rule="evenodd" clip-rule="evenodd" d="M210.219 88.6895H195.752V76.6389H190.643V105.752H195.752V93.693H210.219V105.752H215.328V76.6389H210.219V88.6895Z" fill="#3F4C54"/>
<path fill-rule="evenodd" clip-rule="evenodd" d="M247.311 76.6389H240.199L228.051 87.9191V76.6389H222.942V105.752H228.051V93.4091L240.848 105.752H247.814L232.252 90.652L247.311 76.6389Z" fill="#3F4C54"/>
<path d="M665.165 67.0961H649.359V71.7577H665.165V67.0961Z" fill="#3F4C54"/>
<path fill-rule="evenodd" clip-rule="evenodd" d="M269.35 87.8216C269.35 94.22 268.409 98.1611 266.463 99.8722C265.409 100.797 264.03 101.113 262.1 100.87L261.289 100.756V105.687L261.954 105.743C262.498 105.792 263.016 105.816 263.519 105.816C266.439 105.816 268.709 105.046 270.412 103.473C273.291 100.821 274.694 95.7364 274.694 87.9271V70.6865H290.597V105.752H295.933V65.5776H269.358L269.35 87.8216Z" fill="#3F4C54"/>
<path fill-rule="evenodd" clip-rule="evenodd" d="M310.829 83.3778C312.706 81.7594 315.115 80.8928 317.593 80.945C319.788 80.9232 321.918 81.6918 323.594 83.1102C325.233 84.5761 326.328 86.5541 326.699 88.7219H307.78C308.177 86.6452 309.249 84.7577 310.829 83.3535V83.3778ZM317.593 75.974C315.563 75.9346 313.546 76.3058 311.664 77.0653C309.781 77.8247 308.071 78.9568 306.637 80.3936C303.916 83.3551 302.413 87.2342 302.428 91.2558C302.443 95.2773 303.975 99.1451 306.718 102.086C308.2 103.507 309.948 104.621 311.861 105.364C313.775 106.107 315.816 106.465 317.868 106.417C323.358 106.417 328.021 103.984 330.657 99.7102L331.046 99.0695L326.554 96.434L326.189 97.0827C324.64 99.8399 321.631 101.413 317.917 101.413C315.406 101.485 312.948 100.679 310.967 99.1344C309.321 97.7562 308.196 95.856 307.78 93.7498H331.857L331.922 93.0929C331.979 92.5415 332.035 91.9008 332.035 91.3088C332.077 87.4158 330.703 83.6402 328.167 80.6855C326.851 79.1794 325.222 77.9778 323.395 77.1642C321.567 76.3506 319.585 75.9445 317.585 75.974H317.593Z" fill="#3F4C54"/>
<path fill-rule="evenodd" clip-rule="evenodd" d="M351.879 100.748H342.82V93.5794H351.879C354.611 93.5794 356.185 94.8445 356.185 97.0502C356.185 100.107 353.841 100.748 351.879 100.748ZM350.776 88.584H342.828V81.6343H350.776C352.633 81.6343 354.83 82.2182 354.83 84.9997C354.83 87.4325 353.492 88.584 350.776 88.584ZM357.482 90.6681C358.308 89.9332 358.959 89.0234 359.388 88.0049C359.817 86.9863 360.014 85.8849 359.964 84.7807C359.964 79.834 356.355 76.6713 350.776 76.6713H337.711V105.784H351.879C357.555 105.784 361.285 102.459 361.285 97.3097C361.339 95.9573 361.01 94.6171 360.338 93.4426C359.665 92.268 358.676 91.3065 357.482 90.6681V90.6681Z" fill="#3F4C54"/>
<path fill-rule="evenodd" clip-rule="evenodd" d="M380.31 101.381C378.287 101.392 376.306 100.803 374.618 99.6867C372.93 98.5708 371.612 96.9789 370.83 95.1129C370.048 93.2468 369.837 91.1906 370.225 89.2048C370.613 87.219 371.582 85.3931 373.008 83.9584C374.435 82.5237 376.256 81.5449 378.239 81.146C380.223 80.7471 382.28 80.9461 384.15 81.7178C386.021 82.4895 387.62 83.7991 388.745 85.4806C389.871 87.1621 390.471 89.1399 390.471 91.1632C390.489 92.505 390.238 93.8368 389.734 95.0806C389.23 96.3244 388.484 97.4551 387.537 98.4066C386.591 99.3582 385.464 100.111 384.224 100.622C382.983 101.133 381.652 101.391 380.31 101.381V101.381ZM380.31 75.9418C377.302 75.9515 374.364 76.8523 371.867 78.5307C369.37 80.2091 367.427 82.5897 366.282 85.3719C365.138 88.154 364.843 91.213 365.436 94.1624C366.029 97.1119 367.482 99.8195 369.613 101.943C371.744 104.067 374.456 105.512 377.407 106.095C380.359 106.679 383.417 106.375 386.195 105.221C388.974 104.068 391.348 102.117 393.018 99.6146C394.689 97.1125 395.58 94.1716 395.58 91.1632C395.594 89.1577 395.209 87.1696 394.445 85.3151C393.682 83.4606 392.556 81.7769 391.134 80.3626C389.713 78.9483 388.023 77.8317 386.164 77.0782C384.306 76.3247 382.316 75.9494 380.31 75.9743V75.9418Z" fill="#3F4C54"/>
<path fill-rule="evenodd" clip-rule="evenodd" d="M421.166 98.859C419.313 100.44 416.953 101.303 414.517 101.292C412.08 101.28 409.729 100.393 407.891 98.7941C407.029 97.9703 406.346 96.9777 405.884 95.8784C405.422 94.779 405.192 93.5962 405.207 92.4039C405.202 91.2151 405.479 90.0421 406.015 88.9808C406.55 87.9195 407.329 87 408.288 86.2975C410.17 84.8806 412.461 84.1149 414.817 84.1161C420.136 84.1161 423.737 87.5788 423.737 92.7364C423.758 93.8786 423.543 95.0128 423.104 96.0678C422.666 97.1228 422.015 98.0759 421.191 98.8671L421.166 98.859ZM415.319 79.1207C412.366 79.1281 409.482 80.0114 407.032 81.6589C408.264 79.9235 410.21 78.6503 413.454 77.2555C414.2 76.9312 414.963 76.6068 415.7 76.3067C420.331 74.3929 425.107 72.4142 425.935 67.2404L426.016 66.7457L421.766 64.3129L421.62 65.3834C421.158 68.6271 418.498 69.7868 414.484 71.4816C413.349 71.9682 412.165 72.4548 410.916 73.1035C406.318 75.3093 403.544 77.6123 401.923 80.5642C400.471 83.1916 399.879 86.3624 399.879 91.5119C399.879 100.173 406.042 106.457 414.549 106.457C418.322 106.528 421.976 105.139 424.751 102.581C426.058 101.312 427.092 99.7893 427.789 98.1061C428.487 96.4229 428.832 94.6149 428.805 92.7931C428.83 84.854 423.145 79.1207 415.319 79.1207V79.1207Z" fill="#3F4C54"/>
<path fill-rule="evenodd" clip-rule="evenodd" d="M440.961 83.3778C442.838 81.76 445.247 80.8935 447.725 80.945C449.92 80.9218 452.051 81.6905 453.726 83.1102C455.365 84.5761 456.46 86.5541 456.831 88.7219H437.904C438.307 86.6456 439.381 84.7592 440.961 83.3535V83.3778ZM447.725 75.974C445.695 75.9346 443.678 76.3058 441.795 77.0653C439.913 77.8247 438.203 78.9568 436.769 80.3936C434.043 83.3525 432.536 87.2326 432.551 91.2558C432.566 95.279 434.102 99.1478 436.85 102.086C438.331 103.506 440.077 104.62 441.989 105.363C443.901 106.106 445.941 106.464 447.992 106.417C453.49 106.417 458.153 103.984 460.781 99.7102L461.178 99.0695L456.686 96.434L456.321 97.0827C454.772 99.8399 451.755 101.413 448.049 101.413C445.538 101.486 443.08 100.68 441.099 99.1344C439.451 97.7584 438.325 95.8571 437.912 93.7498H461.981L462.046 93.0929C462.103 92.5415 462.159 91.8927 462.159 91.3088C462.205 87.4151 460.83 83.6383 458.291 80.6855C456.976 79.1815 455.35 77.9812 453.526 77.1677C451.702 76.3541 449.722 75.9468 447.725 75.974V75.974Z" fill="#3F4C54"/>
<path fill-rule="evenodd" clip-rule="evenodd" d="M483.121 80.9693C485.144 80.958 487.125 81.5477 488.813 82.6636C490.501 83.7795 491.819 85.3714 492.601 87.2374C493.384 89.1035 493.594 91.1597 493.206 93.1455C492.818 95.1313 491.85 96.9572 490.423 98.3919C488.996 99.8266 487.176 100.805 485.192 101.204C483.209 101.603 481.151 101.404 479.281 100.632C477.41 99.8608 475.811 98.5512 474.686 96.8697C473.561 95.1882 472.96 93.2104 472.96 91.1871C472.942 89.845 473.191 88.5127 473.695 87.2684C474.198 86.0241 474.945 84.8929 475.892 83.9412C476.838 82.9894 477.965 82.2363 479.207 81.7259C480.448 81.2156 481.779 80.9583 483.121 80.9693V80.9693ZM483.397 75.9739C481.427 75.9421 479.474 76.3382 477.672 77.1349C475.87 77.9315 474.262 79.1097 472.96 80.5881V76.6389H467.843V116.788H472.96V101.802C474.264 103.279 475.871 104.456 477.673 105.253C479.475 106.049 481.427 106.446 483.397 106.417C485.357 106.417 487.298 106.028 489.108 105.274C490.917 104.519 492.559 103.414 493.939 102.021C496.777 99.131 498.368 95.2421 498.368 91.1912C498.368 87.1403 496.777 83.2513 493.939 80.3611C492.56 78.9681 490.918 77.8629 489.108 77.1098C487.298 76.3567 485.357 75.9706 483.397 75.9739V75.9739Z" fill="#3F4C54"/>
<path fill-rule="evenodd" clip-rule="evenodd" d="M511.09 83.3778C512.967 81.7594 515.376 80.8928 517.853 80.945C520.049 80.9232 522.179 81.6918 523.854 83.1102C525.494 84.5761 526.589 86.5541 526.96 88.7219H508.049C508.442 86.6458 509.512 84.7582 511.09 83.3535V83.3778ZM517.853 75.974C515.824 75.9346 513.807 76.3058 511.924 77.0653C510.042 77.8247 508.332 78.9568 506.898 80.3936C504.174 83.3532 502.668 87.2321 502.682 91.2542C502.695 95.2763 504.227 99.145 506.971 102.086C508.452 103.507 510.2 104.621 512.114 105.364C514.027 106.107 516.069 106.465 518.121 106.417C523.611 106.417 528.274 103.984 530.91 99.7102L531.299 99.0695L526.806 96.434L526.441 97.0827C524.9 99.8399 521.884 101.413 518.178 101.413C515.664 101.485 513.204 100.679 511.22 99.1344C509.576 97.7541 508.452 95.8548 508.033 93.7498H532.11L532.175 93.0929C532.231 92.5415 532.288 91.8927 532.288 91.3088C532.334 87.4151 530.958 83.6383 528.42 80.6855C527.109 79.1857 525.488 77.9879 523.67 77.1745C521.851 76.3611 519.878 75.9516 517.886 75.974H517.853Z" fill="#3F4C54"/>
<path fill-rule="evenodd" clip-rule="evenodd" d="M570.42 76.6391H564.037L554.363 87.7003V76.6391H549.254V87.7003L539.588 76.6391H533.205L545.694 90.644L532.686 105.752H539.044L549.254 93.685V105.752H554.363V93.685L564.581 105.752H570.939L557.923 90.644L570.42 76.6391Z" fill="#3F4C54"/>
<path fill-rule="evenodd" clip-rule="evenodd" d="M594.496 88.6897H580.029V76.6391H574.92V105.752H580.029V93.6932H594.496V105.752H599.605V76.6391H594.496V88.6897Z" fill="#3F4C54"/>
<path d="M636.657 76.6391H631.548V105.752H636.657V76.6391Z" fill="#3F4C54"/>
<path fill-rule="evenodd" clip-rule="evenodd" d="M619.173 100.748H612.329V92.1443H619.173C622.506 92.1443 624.039 94.3743 624.039 96.4504C624.039 98.5264 622.506 100.748 619.173 100.748V100.748ZM619.173 87.1408H612.329V76.6391H607.212V105.752H619.173C624.85 105.752 629.14 101.754 629.14 96.4504C629.14 91.1468 624.858 87.1408 619.173 87.1408Z" fill="#3F4C54"/>
<path fill-rule="evenodd" clip-rule="evenodd" d="M664.772 76.6391L649.38 96.5233V76.6391H644.271V105.752H648.456L663.847 85.8595V105.752H668.956V76.6391H664.772Z" fill="#3F4C54"/>
<path fill-rule="evenodd" clip-rule="evenodd" d="M86.2272 81.4244H51.751L88.9789 43.9213C89.2048 43.6935 89.3835 43.4231 89.5043 43.1259C89.6252 42.8286 89.6859 42.5103 89.6829 42.1894V36.9613C89.6877 36.5409 89.5365 36.1337 89.2584 35.8183C88.9804 35.5029 88.5953 35.3017 88.1777 35.2537H87.8054C87.4207 35.2981 87.0646 35.479 86.8019 35.7636L37.9039 85.0096C37.5962 85.3138 37.3857 85.7025 37.2992 86.1264C37.2126 86.5503 37.2539 86.9903 37.4177 87.3908C37.5815 87.7912 37.8606 88.134 38.2194 88.3758C38.5782 88.6175 39.0008 88.7472 39.4335 88.7485H82.0432C82.687 88.7445 83.3045 88.4923 83.767 88.0444L87.425 84.354C87.7452 84.0312 87.9249 83.5948 87.9249 83.1401C87.9249 82.6853 87.7452 82.249 87.425 81.9261C87.1074 81.6077 86.677 81.4274 86.2272 81.4244V81.4244Z" fill="#FFCA8C"/>
<path fill-rule="evenodd" clip-rule="evenodd" d="M103.142 36.0539L61.4793 78.0242H71.7736L99.5812 50.0224V98.4267H51.5087L57.716 92.1708H47.4298L38.0905 101.583C37.7395 101.921 37.4985 102.357 37.3986 102.834C37.2988 103.311 37.3449 103.807 37.5308 104.258C37.7168 104.708 38.034 105.092 38.4413 105.36C38.8485 105.628 39.327 105.767 39.8143 105.759H103.749C104.165 105.76 104.576 105.679 104.96 105.52C105.344 105.361 105.693 105.128 105.986 104.834C106.28 104.54 106.512 104.191 106.67 103.806C106.827 103.422 106.908 103.01 106.905 102.595V37.6158C106.916 37.1753 106.793 36.742 106.552 36.3726C106.312 36.0033 105.965 35.7153 105.558 35.5464C105.152 35.3775 104.703 35.3356 104.272 35.4261C103.841 35.5167 103.447 35.7355 103.142 36.0539V36.0539Z" fill="#1EAAA2"/>
</svg>
