<svg width="168" height="58" viewBox="0 0 168 58" fill="none" xmlns="http://www.w3.org/2000/svg">
<g clip-path="url(#clip0_504_242)">
<mask id="mask0_504_242" style="mask-type:luminance" maskUnits="userSpaceOnUse" x="0" y="0" width="168" height="58">
<path d="M168 0H0V57.2727H168V0Z" fill="white"/>
</mask>
<g mask="url(#mask0_504_242)">
<path d="M92.3203 25.9391L96.6096 29.4115V22.8755H92.3203V25.9391Z" fill="#434343"/>
<path d="M91.707 21.2417V22.4671H97.0174V21.2417H91.707Z" fill="#434343"/>
<path d="M0.205078 49.6316H12.664V47.3851L45.956 20.0161L59.8449 30.6369V32.4751H69.0357V30.6369L45.956 12.459L0.205078 48.4062V49.6316Z" fill="#16A34A"/>
<path d="M14.9102 35.3344L22.0587 29.2072V25.0229H14.9102V35.3344Z" fill="#16A34A"/>
<path d="M14.0938 23.2837V24.5092H23.0806V23.2837H14.0938Z" fill="#16A34A"/>
<path d="M63.3164 23.2839L65.9715 26.1432L74.9583 18.382L90.6852 31.2496V32.2707H96.6084V31.2496L74.9583 13.2759L63.3164 23.2839Z" fill="#434343"/>
<path fill-rule="evenodd" clip-rule="evenodd" d="M51.8945 2.67139H67.7932V4.90194H66.6V3.86457H53.0877V15.5227H51.8945V2.67139Z" fill="#434343"/>
<path d="M68.831 0H50.8574V1.63396H68.831V0Z" fill="#434343"/>
<path d="M87.6217 5.31006H59.0273V6.94403H87.6217V5.31006Z" fill="#434343"/>
<path fill-rule="evenodd" clip-rule="evenodd" d="M60.4746 7.77246L86.1772 7.98665V20.833H84.984V9.16993L61.6678 8.97563V21.8543H60.4746V7.77246Z" fill="#434343"/>
<path d="M57.8022 6.12744H55.7598V8.16989H57.8022V6.12744Z" fill="#434343"/>
<path d="M57.8022 11.0293H55.7598V13.0718H57.8022V11.0293Z" fill="#434343"/>
<path d="M57.8022 15.9312H55.7598V17.9736H57.8022V15.9312Z" fill="#434343"/>
<path d="M67.1968 12.2544H65.1543V14.2969H67.1968V12.2544Z" fill="#434343"/>
<path d="M67.1968 17.1567H65.1543V19.1991H67.1968V17.1567Z" fill="#434343"/>
<path d="M72.0991 12.2544H70.0566V14.2969H72.0991V12.2544Z" fill="#434343"/>
<path d="M72.0991 17.1567H70.0566V19.1991H72.0991V17.1567Z" fill="#434343"/>
<path d="M77.0014 12.2544H74.959V14.2969H77.0014V12.2544Z" fill="#434343"/>
<path d="M81.9038 12.2544H79.8613V14.2969H81.9038V12.2544Z" fill="#434343"/>
<path d="M81.9038 17.1567H79.8613V19.1991H81.9038V17.1567Z" fill="#434343"/>
<path d="M31.2793 41.8837C31.2793 39.9293 31.9246 38.3008 33.2149 36.9981C34.5052 35.6951 36.146 35.0439 38.1379 35.0439C40.1673 35.0439 41.8084 35.6515 43.061 36.8666L41.896 38.6705C41.4075 38.2569 40.8312 37.9188 40.1673 37.6558C39.5158 37.3926 38.877 37.2611 38.2506 37.2611C36.8476 37.2611 35.7516 37.6994 34.9624 38.5764C34.173 39.4534 33.7785 40.5433 33.7785 41.846C33.7785 43.1614 34.1794 44.2887 34.981 45.2284C35.7828 46.1553 36.8789 46.6187 38.2694 46.6187C39.6974 46.6187 40.9877 46.0551 42.1404 44.9277L43.418 46.6753C42.0024 48.1157 40.2549 48.8361 38.1754 48.8361C36.1086 48.8361 34.4424 48.1784 33.1772 46.8631C31.9119 45.5477 31.2793 43.888 31.2793 41.8837Z" fill="#434343"/>
<path d="M45.5938 48.6107V35.2695H48.0177V42.9736L47.8862 45.0405H47.9238C48.3498 44.1761 48.7255 43.481 49.0513 42.9548L54.0871 35.2695H56.4922V48.6107H54.0871V40.9254L54.2184 38.8583H54.181C53.7677 39.7103 53.398 40.3992 53.0723 40.9254L47.999 48.6107H45.5938Z" fill="#434343"/>
<path d="M59.8359 48.6107V35.2695H68.0286V37.3552H62.2598V40.4367H64.9282C66.1684 40.4367 67.1704 40.8125 67.9345 41.5642C68.7113 42.3033 69.0996 43.2991 69.0996 44.552C69.0996 45.7545 68.7175 46.7317 67.9534 47.4834C67.1893 48.2348 66.1997 48.6107 64.9845 48.6107H59.8359ZM62.2598 46.525H64.5524C65.2162 46.525 65.7298 46.3496 66.0932 45.9988C66.4564 45.648 66.638 45.1657 66.638 44.552C66.638 43.9382 66.4502 43.4495 66.0744 43.0863C65.6985 42.7104 65.1785 42.5226 64.5146 42.5226H62.2598V46.525Z" fill="#434343"/>
<path d="M71.5098 48.6107V35.2695H73.9336V40.6999H75.6625L78.8003 35.2695H81.4311L77.6542 41.6206V41.6583L81.6566 48.6107H78.9132L75.6625 42.7856H73.9336V48.6107H71.5098Z" fill="#434343"/>
<path d="M82.4473 41.846C82.4473 39.9293 83.1049 38.3197 84.4203 37.0167C85.7483 35.7016 87.3892 35.0439 89.3434 35.0439C91.2978 35.0439 92.9324 35.7016 94.2478 37.0167C95.5756 38.3197 96.2397 39.9293 96.2397 41.846C96.2397 43.8128 95.5756 45.4725 94.2478 46.8256C92.9324 48.1658 91.2978 48.8361 89.3434 48.8361C87.3892 48.8361 85.7483 48.1658 84.4203 46.8256C83.1049 45.4725 82.4473 43.8128 82.4473 41.846ZM84.9465 41.846C84.9465 43.1988 85.3725 44.3326 86.2242 45.247C87.0761 46.1615 88.1158 46.6187 89.3434 46.6187C90.5711 46.6187 91.6109 46.1615 92.4628 45.247C93.3145 44.3326 93.7405 43.1988 93.7405 41.846C93.7405 40.5557 93.3145 39.472 92.4628 38.5953C91.6109 37.7059 90.5711 37.2611 89.3434 37.2611C88.1158 37.2611 87.0761 37.7059 86.2242 38.5953C85.3725 39.472 84.9465 40.5557 84.9465 41.846Z" fill="#434343"/>
<path d="M98.2734 48.6107L99.3633 35.2695H101.937L104.568 41.8649L105.226 43.8191H105.263C105.502 43.0423 105.721 42.3911 105.921 41.8649L108.552 35.2695H111.126L112.216 48.6107H109.792L109.247 41.1509C109.222 40.8877 109.209 40.587 109.209 40.2489C109.209 39.8981 109.216 39.6162 109.228 39.4034V39.0839H109.191C108.903 39.9482 108.658 40.6371 108.458 41.1509L106.297 46.3184H104.192L102.031 41.1509L101.299 39.065H101.261C101.299 39.8668 101.292 40.562 101.242 41.1509L100.697 48.6107H98.2734Z" fill="#434343"/>
<path d="M114.047 41.5077C114.047 39.879 114.611 38.5512 115.738 37.5242C116.878 36.4968 118.35 35.9833 120.154 35.9833V34.5176H122.578V35.9833C124.382 35.9833 125.847 36.4968 126.975 37.5242C128.115 38.5512 128.685 39.879 128.685 41.5077C128.685 43.1736 128.121 44.5329 126.994 45.5853C125.866 46.625 124.394 47.1448 122.578 47.1448V48.836H120.154V47.1448C118.35 47.1448 116.878 46.6186 115.738 45.5664C114.611 44.5141 114.047 43.1612 114.047 41.5077ZM122.578 45.1154C123.655 45.1154 124.532 44.7835 125.209 44.1196C125.885 43.4431 126.223 42.5725 126.223 41.5077C126.223 40.468 125.885 39.6287 125.209 38.9896C124.532 38.3384 123.655 38.0126 122.578 38.0126V45.1154ZM116.527 41.5077C116.527 42.5725 116.859 43.4431 117.523 44.1196C118.2 44.7835 119.077 45.1154 120.154 45.1154V38.0126C119.077 38.0126 118.2 38.3384 117.523 38.9896C116.859 39.6287 116.527 40.468 116.527 41.5077Z" fill="#434343"/>
<path d="M130.221 41.846C130.221 39.9293 130.878 38.3197 132.194 37.0167C133.522 35.7016 135.163 35.0439 137.117 35.0439C139.071 35.0439 140.706 35.7016 142.021 37.0167C143.349 38.3197 144.013 39.9293 144.013 41.846C144.013 43.8128 143.349 45.4725 142.021 46.8256C140.706 48.1658 139.071 48.8361 137.117 48.8361C135.163 48.8361 133.522 48.1658 132.194 46.8256C130.878 45.4725 130.221 43.8128 130.221 41.846ZM132.72 41.846C132.72 43.1988 133.146 44.3326 133.998 45.247C134.85 46.1615 135.889 46.6187 137.117 46.6187C138.345 46.6187 139.384 46.1615 140.236 45.247C141.088 44.3326 141.514 43.1988 141.514 41.846C141.514 40.5557 141.088 39.472 140.236 38.5953C139.384 37.7059 138.345 37.2611 137.117 37.2611C135.889 37.2611 134.85 37.7059 133.998 38.5953C133.146 39.472 132.72 40.5557 132.72 41.846Z" fill="#434343"/>
<path d="M146.555 48.6107V35.2695H151.703C152.956 35.2695 153.977 35.6702 154.766 36.472C155.555 37.2738 155.95 38.3197 155.95 39.61C155.95 40.9003 155.555 41.9589 154.766 42.7856C153.977 43.5998 152.956 44.0069 151.703 44.0069H148.979V48.6107H146.555ZM148.979 41.9024H151.252C151.954 41.9024 152.499 41.6957 152.887 41.2824C153.288 40.8689 153.488 40.3116 153.488 39.61C153.488 38.9211 153.288 38.3761 152.887 37.9751C152.499 37.5618 151.966 37.3552 151.29 37.3552H148.979V41.9024Z" fill="#434343"/>
<path d="M161.179 48.6107V37.3552H156.801V35.2695H167.962V37.3552H163.584V48.6107H161.179Z" fill="#434343"/>
<mask id="mask1_504_242" style="mask-type:alpha" maskUnits="userSpaceOnUse" x="31" y="34" width="137" height="15">
<path d="M31.2793 41.8833C31.2793 39.9289 31.9246 38.3004 33.2149 36.9977C34.5052 35.6947 36.146 35.0435 38.1379 35.0435C40.1673 35.0435 41.8084 35.6511 43.061 36.8662L41.896 38.6701C41.4075 38.2565 40.8312 37.9184 40.1673 37.6554C39.5158 37.3922 38.877 37.2607 38.2506 37.2607C36.8476 37.2607 35.7516 37.699 34.9624 38.576C34.173 39.453 33.7785 40.5429 33.7785 41.8456C33.7785 43.161 34.1794 44.2883 34.981 45.228C35.7828 46.1549 36.8789 46.6183 38.2694 46.6183C39.6974 46.6183 40.9877 46.0547 42.1404 44.9273L43.418 46.6749C42.0024 48.1153 40.2549 48.8357 38.1754 48.8357C36.1086 48.8357 34.4424 48.178 33.1772 46.8627C31.9119 45.5473 31.2793 43.8876 31.2793 41.8833Z" fill="#434343"/>
<path d="M45.5938 48.6102V35.269H48.0177V42.9731L47.8862 45.04H47.9238C48.3498 44.1756 48.7255 43.4805 49.0513 42.9543L54.0871 35.269H56.4922V48.6102H54.0871V40.9249L54.2184 38.8578H54.181C53.7677 39.7098 53.398 40.3987 53.0723 40.9249L47.999 48.6102H45.5938Z" fill="#434343"/>
<path d="M59.8359 48.6102V35.269H68.0286V37.3547H62.2598V40.4362H64.9282C66.1684 40.4362 67.1704 40.812 67.9345 41.5637C68.7113 42.3028 69.0995 43.2986 69.0995 44.5515C69.0995 45.754 68.7175 46.7312 67.9534 47.4829C67.1893 48.2343 66.1996 48.6102 64.9845 48.6102H59.8359ZM62.2598 46.5245H64.5523C65.2162 46.5245 65.7298 46.3491 66.0932 45.9983C66.4564 45.6475 66.638 45.1652 66.638 44.5515C66.638 43.9377 66.4502 43.449 66.0744 43.0858C65.6985 42.7099 65.1785 42.5221 64.5146 42.5221H62.2598V46.5245Z" fill="#434343"/>
<path d="M71.5098 48.6102V35.269H73.9336V40.6994H75.6625L78.8003 35.269H81.4311L77.6542 41.6201V41.6578L81.6566 48.6102H78.9132L75.6625 42.7851H73.9336V48.6102H71.5098Z" fill="#434343"/>
<path d="M82.4473 41.8456C82.4473 39.9289 83.1049 38.3193 84.4203 37.0163C85.7483 35.7012 87.3892 35.0435 89.3434 35.0435C91.2978 35.0435 92.9325 35.7012 94.2478 37.0163C95.5756 38.3193 96.2398 39.9289 96.2398 41.8456C96.2398 43.8124 95.5756 45.4721 94.2478 46.8252C92.9325 48.1654 91.2978 48.8357 89.3434 48.8357C87.3892 48.8357 85.7483 48.1654 84.4203 46.8252C83.1049 45.4721 82.4473 43.8124 82.4473 41.8456ZM84.9465 41.8456C84.9465 43.1984 85.3725 44.3322 86.2242 45.2466C87.0761 46.1611 88.1158 46.6183 89.3434 46.6183C90.5712 46.6183 91.6109 46.1611 92.4629 45.2466C93.3145 44.3322 93.7405 43.1984 93.7405 41.8456C93.7405 40.5553 93.3145 39.4716 92.4629 38.5949C91.6109 37.7055 90.5712 37.2607 89.3434 37.2607C88.1158 37.2607 87.0761 37.7055 86.2242 38.5949C85.3725 39.4716 84.9465 40.5553 84.9465 41.8456Z" fill="#434343"/>
<path d="M98.2754 48.6102L99.3652 35.269H101.939L104.57 41.8644L105.228 43.8186H105.265C105.503 43.0418 105.723 42.3906 105.923 41.8644L108.554 35.269H111.128L112.218 48.6102H109.794L109.249 41.1504C109.224 40.8872 109.211 40.5865 109.211 40.2484C109.211 39.8976 109.218 39.6157 109.23 39.4029V39.0834H109.193C108.904 39.9477 108.66 40.6366 108.46 41.1504L106.299 46.3179H104.194L102.033 41.1504L101.301 39.0645H101.263C101.301 39.8663 101.294 40.5615 101.244 41.1504L100.699 48.6102H98.2754Z" fill="#434343"/>
<path d="M114.047 41.5077C114.047 39.879 114.611 38.5512 115.738 37.5242C116.878 36.4968 118.35 35.9833 120.154 35.9833V34.5176H122.578V35.9833C124.382 35.9833 125.847 36.4968 126.975 37.5242C128.115 38.5512 128.685 39.879 128.685 41.5077C128.685 43.1736 128.121 44.5329 126.994 45.5853C125.866 46.625 124.394 47.1448 122.578 47.1448V48.836H120.154V47.1448C118.35 47.1448 116.878 46.6186 115.738 45.5664C114.611 44.5141 114.047 43.1612 114.047 41.5077ZM122.578 45.1154C123.655 45.1154 124.532 44.7835 125.209 44.1196C125.885 43.4431 126.223 42.5725 126.223 41.5077C126.223 40.468 125.885 39.6287 125.209 38.9896C124.532 38.3384 123.655 38.0126 122.578 38.0126V45.1154ZM116.527 41.5077C116.527 42.5725 116.859 43.4431 117.523 44.1196C118.2 44.7835 119.077 45.1154 120.154 45.1154V38.0126C119.077 38.0126 118.2 38.3384 117.523 38.9896C116.859 39.6287 116.527 40.468 116.527 41.5077Z" fill="#434343"/>
<path d="M130.221 41.8456C130.221 39.9289 130.878 38.3193 132.194 37.0163C133.522 35.7012 135.163 35.0435 137.117 35.0435C139.071 35.0435 140.706 35.7012 142.021 37.0163C143.349 38.3193 144.013 39.9289 144.013 41.8456C144.013 43.8124 143.349 45.4721 142.021 46.8252C140.706 48.1654 139.071 48.8357 137.117 48.8357C135.163 48.8357 133.522 48.1654 132.194 46.8252C130.878 45.4721 130.221 43.8124 130.221 41.8456ZM132.72 41.8456C132.72 43.1984 133.146 44.3322 133.998 45.2466C134.85 46.1611 135.889 46.6183 137.117 46.6183C138.345 46.6183 139.384 46.1611 140.236 45.2466C141.088 44.3322 141.514 43.1984 141.514 41.8456C141.514 40.5553 141.088 39.4716 140.236 38.5949C139.384 37.7055 138.345 37.2607 137.117 37.2607C135.889 37.2607 134.85 37.7055 133.998 38.5949C133.146 39.4716 132.72 40.5553 132.72 41.8456Z" fill="#434343"/>
<path d="M146.555 48.6102V35.269H151.703C152.956 35.269 153.977 35.6697 154.766 36.4715C155.555 37.2733 155.95 38.3192 155.95 39.6095C155.95 40.8998 155.555 41.9584 154.766 42.7851C153.977 43.5993 152.956 44.0064 151.703 44.0064H148.979V48.6102H146.555ZM148.979 41.9019H151.252C151.954 41.9019 152.499 41.6952 152.887 41.2819C153.288 40.8684 153.488 40.3111 153.488 39.6095C153.488 38.9206 153.288 38.3756 152.887 37.9746C152.499 37.5613 151.966 37.3547 151.29 37.3547H148.979V41.9019Z" fill="#434343"/>
<path d="M161.179 48.6102V37.3547H156.801V35.269H167.962V37.3547H163.584V48.6102H161.179Z" fill="#434343"/>
</mask>
<g mask="url(#mask1_504_242)">
<path d="M70.0573 33.0879H30.4336V49.4275H70.0573V33.0879Z" fill="#16A34A"/>
</g>
<path d="M33.1445 56.3183V52.5908H36.1633V56.3183H35.486V53.1736H33.8218V56.3183H33.1445Z" fill="#434343"/>
<path d="M37.1191 56.3183V52.5908H38.5576C38.9075 52.5908 39.1929 52.7027 39.4134 52.9268C39.6339 53.1509 39.7441 53.443 39.7441 53.8036C39.7441 54.1642 39.6339 54.4598 39.4134 54.6908C39.1929 54.9182 38.9075 55.0321 38.5576 55.0321H37.7964V56.3183H37.1191ZM37.7964 54.4441H38.4316C38.6276 54.4441 38.7798 54.3863 38.8884 54.2708C39.0003 54.1553 39.0564 53.9995 39.0564 53.8036C39.0564 53.611 39.0003 53.4587 38.8884 53.3468C38.7798 53.2313 38.6311 53.1736 38.4421 53.1736H37.7964V54.4441Z" fill="#434343"/>
<path d="M40.166 54.4283C40.166 53.8928 40.3498 53.443 40.7173 53.0791C41.0883 52.7116 41.5468 52.5278 42.0928 52.5278C42.6388 52.5278 43.0955 52.7116 43.463 53.0791C43.8341 53.443 44.0195 53.8928 44.0195 54.4283C44.0195 54.9779 43.8341 55.4416 43.463 55.8196C43.0955 56.194 42.6388 56.3813 42.0928 56.3813C41.5468 56.3813 41.0883 56.194 40.7173 55.8196C40.3498 55.4416 40.166 54.9779 40.166 54.4283ZM40.8643 54.4283C40.8643 54.8063 40.9833 55.123 41.2213 55.3786C41.4594 55.6342 41.7498 55.7618 42.0928 55.7618C42.4359 55.7618 42.7263 55.6342 42.9643 55.3786C43.2024 55.123 43.3213 54.8063 43.3213 54.4283C43.3213 54.0678 43.2024 53.7652 42.9643 53.5201C42.7263 53.2717 42.4359 53.1473 42.0928 53.1473C41.7498 53.1473 41.4594 53.2717 41.2213 53.5201C40.9833 53.7652 40.8643 54.0678 40.8643 54.4283Z" fill="#434343"/>
<path d="M44.7559 56.3183V52.5908H45.4331V54.7433L45.3964 55.3208H45.4069C45.5259 55.0793 45.6309 54.8851 45.7219 54.7381L47.1289 52.5908H47.8009V56.3183H47.1289V54.1711L47.1656 53.5936H47.1551C47.0396 53.8315 46.9365 54.0241 46.8454 54.1711L45.4279 56.3183H44.7559Z" fill="#434343"/>
<path d="M48.4258 55.8511L48.7933 55.3996C48.8947 55.5082 49.0207 55.5991 49.1713 55.6726C49.3216 55.7461 49.4758 55.7828 49.6333 55.7828C49.8361 55.7828 49.9972 55.732 50.1163 55.6306C50.2351 55.5292 50.2948 55.3891 50.2948 55.2106C50.2948 55.0495 50.2404 54.9235 50.132 54.8326C50.027 54.7381 49.8834 54.6908 49.7015 54.6908H49.2448V54.1448H49.6123C49.7803 54.1448 49.9185 54.0959 50.027 53.9978C50.1354 53.8998 50.1898 53.7773 50.1898 53.6303C50.1898 53.4798 50.1406 53.3573 50.0428 53.2628C49.9447 53.1648 49.803 53.1158 49.6175 53.1158C49.334 53.1158 49.0644 53.2208 48.809 53.4308L48.536 52.9373C48.8649 52.6643 49.2639 52.5278 49.733 52.5278C50.0514 52.5278 50.321 52.6188 50.5415 52.8008C50.7654 52.9829 50.8775 53.2313 50.8775 53.5463C50.8775 53.9138 50.706 54.1904 50.363 54.3758V54.3863C50.5554 54.4458 50.7076 54.5508 50.8198 54.7013C50.9317 54.8519 50.9878 55.0357 50.9878 55.2526C50.9878 55.5955 50.8635 55.8704 50.615 56.0768C50.37 56.2799 50.0638 56.3813 49.6963 56.3813C49.4581 56.3813 49.2255 56.3358 48.998 56.2448C48.774 56.1503 48.5833 56.0191 48.4258 55.8511Z" fill="#434343"/>
<path d="M51.7246 56.3183V52.5908H53.0529C53.3994 52.5908 53.6776 52.6765 53.8876 52.8481C54.101 53.0161 54.2079 53.2507 54.2079 53.5516C54.2079 53.7265 54.1675 53.884 54.0871 54.0241C54.0065 54.1641 53.8962 54.2725 53.7564 54.3496V54.3601C53.9523 54.4162 54.101 54.5264 54.2026 54.6908C54.3076 54.8552 54.3601 55.0373 54.3601 55.2368C54.3601 55.5902 54.2375 55.8599 53.9926 56.0453C53.7475 56.2274 53.4414 56.3183 53.0739 56.3183H51.7246ZM52.4019 54.1133H53.0581C53.2015 54.1133 53.3135 54.0697 53.3941 53.9821C53.4781 53.8912 53.5201 53.7756 53.5201 53.6356C53.5201 53.4991 53.4781 53.3888 53.3941 53.3048C53.3135 53.2172 53.198 53.1736 53.0476 53.1736H52.4019V54.1133ZM52.4019 55.7356H53.1264C53.2944 55.7356 53.4256 55.6867 53.5201 55.5886C53.618 55.4872 53.6671 55.3559 53.6671 55.1948C53.6671 55.0373 53.618 54.9097 53.5201 54.8116C53.4256 54.7102 53.2944 54.6593 53.1264 54.6593H52.4019V55.7356Z" fill="#434343"/>
<path d="M54.8809 54.4283C54.8809 53.8928 55.0646 53.443 55.4321 53.0791C55.803 52.7116 56.2616 52.5278 56.8076 52.5278C57.3536 52.5278 57.8104 52.7116 58.1779 53.0791C58.5487 53.443 58.7344 53.8928 58.7344 54.4283C58.7344 54.9779 58.5487 55.4416 58.1779 55.8196C57.8104 56.194 57.3536 56.3813 56.8076 56.3813C56.2616 56.3813 55.803 56.194 55.4321 55.8196C55.0646 55.4416 54.8809 54.9779 54.8809 54.4283ZM55.5791 54.4283C55.5791 54.8063 55.6979 55.123 55.9361 55.3786C56.174 55.6342 56.4645 55.7618 56.8076 55.7618C57.1505 55.7618 57.441 55.6342 57.6791 55.3786C57.917 55.123 58.0361 54.8063 58.0361 54.4283C58.0361 54.0678 57.917 53.7652 57.6791 53.5201C57.441 53.2717 57.1505 53.1473 56.8076 53.1473C56.4645 53.1473 56.174 53.2717 55.9361 53.5201C55.6979 53.7652 55.5791 54.0678 55.5791 54.4283Z" fill="#434343"/>
<path d="M60.0079 55.7356H61.4884V53.1736H60.4909V53.4518C60.4909 54.4529 60.3298 55.2141 60.0079 55.7356ZM58.9316 55.7356H59.3096C59.6702 55.1896 59.8504 54.4126 59.8504 53.4046V52.5908H62.1656V55.7356H62.5804V57.0533H61.9766V56.3183H59.5564V57.0533H58.9316V55.7356Z" fill="#434343"/>
<path d="M63.0078 54.4388C63.0078 53.8928 63.1882 53.4378 63.5486 53.0738C63.9091 52.7099 64.3676 52.5278 64.9241 52.5278C65.4911 52.5278 65.9497 52.6975 66.2996 53.0371L65.9741 53.5411C65.8376 53.4256 65.6767 53.3311 65.4911 53.2576C65.3092 53.1841 65.1307 53.1473 64.9556 53.1473C64.5637 53.1473 64.2573 53.2698 64.0368 53.5148C63.8163 53.7599 63.7061 54.0644 63.7061 54.4283C63.7061 54.7958 63.8182 55.1108 64.0421 55.3733C64.2661 55.6322 64.5723 55.7618 64.9608 55.7618C65.3598 55.7618 65.7204 55.6043 66.0423 55.2893L66.3993 55.7776C66.0039 56.1802 65.5156 56.3813 64.9346 56.3813C64.3571 56.3813 63.8917 56.1976 63.5381 55.8301C63.1846 55.4626 63.0078 54.9989 63.0078 54.4388Z" fill="#434343"/>
<path d="M67.8796 56.3183V53.1736H66.6562V52.5908H69.7747V53.1736H68.5516V56.3183H67.8796Z" fill="#434343"/>
<path d="M70.3574 56.3183V52.5908H71.6857C72.0322 52.5908 72.3104 52.6765 72.5204 52.8481C72.734 53.0161 72.8407 53.2507 72.8407 53.5516C72.8407 53.7265 72.8006 53.884 72.7199 54.0241C72.6395 54.1641 72.5292 54.2725 72.3892 54.3496V54.3601C72.5853 54.4162 72.734 54.5264 72.8354 54.6908C72.9404 54.8552 72.9929 55.0373 72.9929 55.2368C72.9929 55.5902 72.8705 55.8599 72.6254 56.0453C72.3806 56.2274 72.0742 56.3183 71.7067 56.3183H70.3574ZM71.0347 54.1133H71.6909C71.8346 54.1133 71.9465 54.0697 72.0269 53.9821C72.1109 53.8912 72.1529 53.7756 72.1529 53.6356C72.1529 53.4991 72.1109 53.3888 72.0269 53.3048C71.9465 53.2172 71.831 53.1736 71.6804 53.1736H71.0347V54.1133ZM71.0347 55.7356H71.7592C71.9272 55.7356 72.0584 55.6867 72.1529 55.5886C72.251 55.4872 72.2999 55.3559 72.2999 55.1948C72.2999 55.0373 72.251 54.9097 72.1529 54.8116C72.0584 54.7102 71.9272 54.6593 71.7592 54.6593H71.0347V55.7356Z" fill="#434343"/>
<path d="M73.7324 56.3183V52.5908H75.9637V53.1736H74.4097V54.1501H75.6644V54.7328H74.4097V55.7356H76.0477V56.3183H73.7324Z" fill="#434343"/>
<path d="M76.7754 56.3183V52.5908H77.4526V54.1711H79.1589V52.5908H79.8309V56.3183H79.1589V54.7538H77.4526V56.3183H76.7754Z" fill="#434343"/>
<path d="M80.7852 56.3183V52.5908H81.4624V54.1711H83.1687V52.5908H83.8407V56.3183H83.1687V54.7538H81.4624V56.3183H80.7852Z" fill="#434343"/>
<path d="M84.3848 56.3183L85.692 52.5908H86.406L87.7133 56.3183H87.0203L86.7 55.3628H85.3928L85.0778 56.3183H84.3848ZM85.5608 54.8116H86.532L86.2013 53.8141L86.0543 53.2366H86.0438C85.9879 53.4816 85.9388 53.674 85.8968 53.8141L85.5608 54.8116Z" fill="#434343"/>
<path d="M87.9004 56.3183L88.6879 55.0058L88.8087 54.8116V54.8011C88.5881 54.703 88.4218 54.5596 88.3099 54.3706C88.2013 54.1816 88.1471 53.9646 88.1471 53.7196C88.1471 53.4676 88.2032 53.254 88.3151 53.0791C88.4306 52.9006 88.5829 52.771 88.7719 52.6906C88.9258 52.624 89.1621 52.5908 89.4807 52.5908H90.6882V56.3183H90.0109V54.9271H89.4649L88.6564 56.3183H87.9004ZM89.4229 54.3601H90.0109V53.1736H89.5332C89.3232 53.1736 89.1673 53.2051 89.0659 53.2681C88.912 53.3626 88.8349 53.5217 88.8349 53.7458C88.8349 53.9417 88.8874 54.094 88.9924 54.2026C89.0974 54.3076 89.2408 54.3601 89.4229 54.3601Z" fill="#434343"/>
<path d="M92.793 54.4388C92.793 53.8928 92.9734 53.4378 93.3337 53.0738C93.6943 52.7099 94.1527 52.5278 94.7092 52.5278C95.2762 52.5278 95.7348 52.6975 96.0847 53.0371L95.7592 53.5411C95.6227 53.4256 95.4618 53.3311 95.2762 53.2576C95.0943 53.1841 94.9158 53.1473 94.7407 53.1473C94.3489 53.1473 94.0425 53.2698 93.822 53.5148C93.6015 53.7599 93.4912 54.0644 93.4912 54.4283C93.4912 54.7958 93.6034 55.1108 93.8272 55.3733C94.0513 55.6322 94.3574 55.7618 94.7459 55.7618C95.1449 55.7618 95.5055 55.6043 95.8274 55.2893L96.1844 55.7776C95.789 56.1802 95.3008 56.3813 94.7197 56.3813C94.1422 56.3813 93.6769 56.1976 93.3232 55.8301C92.9698 55.4626 92.793 54.9989 92.793 54.4388Z" fill="#434343"/>
<path d="M97.6627 56.3183V53.1736H96.4395V52.5908H99.558V53.1736H98.3347V56.3183H97.6627Z" fill="#434343"/>
<path d="M100.141 56.3183V52.5908H101.579C101.929 52.5908 102.214 52.7027 102.435 52.9268C102.655 53.1509 102.766 53.443 102.766 53.8036C102.766 54.1642 102.655 54.4598 102.435 54.6908C102.214 54.9182 101.929 55.0321 101.579 55.0321H100.818V56.3183H100.141ZM100.818 54.4441H101.453C101.649 54.4441 101.802 54.3863 101.91 54.2708C102.022 54.1553 102.078 53.9995 102.078 53.8036C102.078 53.611 102.022 53.4587 101.91 53.3468C101.802 53.2313 101.653 53.1736 101.464 53.1736H100.818V54.4441Z" fill="#434343"/>
<path d="M103.188 54.4283C103.188 53.8928 103.371 53.443 103.739 53.0791C104.11 52.7116 104.568 52.5278 105.114 52.5278C105.66 52.5278 106.117 52.7116 106.484 53.0791C106.856 53.443 107.041 53.8928 107.041 54.4283C107.041 54.9779 106.856 55.4416 106.484 55.8196C106.117 56.194 105.66 56.3813 105.114 56.3813C104.568 56.3813 104.11 56.194 103.739 55.8196C103.371 55.4416 103.188 54.9779 103.188 54.4283ZM103.886 54.4283C103.886 54.8063 104.005 55.123 104.243 55.3786C104.481 55.6342 104.771 55.7618 105.114 55.7618C105.457 55.7618 105.748 55.6342 105.986 55.3786C106.224 55.123 106.343 54.8063 106.343 54.4283C106.343 54.0678 106.224 53.7652 105.986 53.5201C105.748 53.2717 105.457 53.1473 105.114 53.1473C104.771 53.1473 104.481 53.2717 104.243 53.5201C104.005 53.7652 103.886 54.0678 103.886 54.4283Z" fill="#434343"/>
<path d="M107.777 56.3183V52.5908H108.455V54.7433L108.418 55.3208H108.428C108.547 55.0793 108.652 54.8851 108.743 54.7381L110.15 52.5908H110.822V56.3183H110.15V54.1711L110.187 53.5936H110.177C110.061 53.8315 109.958 54.0241 109.867 54.1711L108.449 56.3183H107.777Z" fill="#434343"/>
<path d="M112.628 56.3183V53.1736H111.404V52.5908H114.523V53.1736H113.3V56.3183H112.628Z" fill="#434343"/>
<path d="M115.105 56.3183V52.5908H117.337V53.1736H115.783V54.1501H117.037V54.7328H115.783V55.7356H117.421V56.3183H115.105Z" fill="#434343"/>
<path d="M117.77 55.7408C118.049 55.7024 118.253 55.5167 118.379 55.1843C118.508 54.8483 118.573 54.3233 118.573 53.6093V52.5908H120.878V56.3183H120.2V53.1736H119.219V53.6198C119.219 54.5369 119.105 55.2194 118.877 55.6673C118.65 56.1119 118.28 56.3429 117.77 56.3603V55.7408Z" fill="#434343"/>
<path d="M121.836 56.3183V52.5908H122.513V53.8981H123.243C123.586 53.8981 123.866 54.01 124.083 54.2341C124.3 54.4546 124.408 54.7486 124.408 55.1161C124.408 55.4731 124.302 55.7635 124.088 55.9876C123.875 56.2081 123.597 56.3183 123.253 56.3183H121.836ZM122.513 55.7356H123.133C123.318 55.7356 123.462 55.6814 123.563 55.5728C123.668 55.4609 123.721 55.3087 123.721 55.1161C123.721 54.9235 123.667 54.7696 123.558 54.6541C123.453 54.5386 123.308 54.4808 123.122 54.4808H122.513V55.7356Z" fill="#434343"/>
<path d="M125.051 56.3183V52.5908H125.728V54.1711H127.434V52.5908H128.106V56.3183H127.434V54.7538H125.728V56.3183H125.051Z" fill="#434343"/>
<path d="M128.652 56.3183L129.96 52.5908H130.674L131.981 56.3183H131.288L130.968 55.3628H129.66L129.345 56.3183H128.652ZM129.828 54.8116H130.8L130.469 53.8141L130.322 53.2366H130.311C130.255 53.4816 130.206 53.674 130.164 53.8141L129.828 54.8116Z" fill="#434343"/>
<path d="M132.166 56.3183L132.954 55.0058L133.074 54.8116V54.8011C132.854 54.703 132.687 54.5596 132.576 54.3706C132.467 54.1816 132.413 53.9646 132.413 53.7196C132.413 53.4676 132.469 53.254 132.581 53.0791C132.696 52.9006 132.849 52.771 133.038 52.6906C133.191 52.624 133.428 52.5908 133.746 52.5908H134.954V56.3183H134.277V54.9271H133.731L132.922 56.3183H132.166ZM133.689 54.3601H134.277V53.1736H133.799C133.589 53.1736 133.433 53.2051 133.332 53.2681C133.177 53.3626 133.101 53.5217 133.101 53.7458C133.101 53.9417 133.153 54.094 133.258 54.2026C133.363 54.3076 133.506 54.3601 133.689 54.3601Z" fill="#434343"/>
<path d="M137.273 56.3183V52.5908H137.951V54.1081H138.434L139.31 52.5908H140.045L138.99 54.3653V54.3758L140.108 56.3183H139.342L138.434 54.6908H137.951V56.3183H137.273Z" fill="#434343"/>
<path d="M140.355 54.4283C140.355 53.8928 140.539 53.443 140.907 53.0791C141.278 52.7116 141.736 52.5278 142.282 52.5278C142.828 52.5278 143.285 52.7116 143.652 53.0791C144.024 53.443 144.209 53.8928 144.209 54.4283C144.209 54.9779 144.024 55.4416 143.652 55.8196C143.285 56.194 142.828 56.3813 142.282 56.3813C141.736 56.3813 141.278 56.194 140.907 55.8196C140.539 55.4416 140.355 54.9779 140.355 54.4283ZM141.054 54.4283C141.054 54.8063 141.173 55.123 141.411 55.3786C141.649 55.6342 141.939 55.7618 142.282 55.7618C142.625 55.7618 142.916 55.6342 143.154 55.3786C143.392 55.123 143.511 54.8063 143.511 54.4283C143.511 54.0678 143.392 53.7652 143.154 53.5201C142.916 53.2717 142.625 53.1473 142.282 53.1473C141.939 53.1473 141.649 53.2717 141.411 53.5201C141.173 53.7652 141.054 54.0678 141.054 54.4283Z" fill="#434343"/>
<path d="M144.805 56.3183L145.109 52.5908H145.828L146.563 54.4336L146.747 54.9796H146.758C146.824 54.7626 146.885 54.5806 146.941 54.4336L147.676 52.5908H148.396L148.7 56.3183H148.023L147.871 54.2341C147.864 54.1606 147.86 54.0766 147.86 53.9821C147.86 53.884 147.862 53.8052 147.865 53.7458V53.6566H147.855C147.775 53.8981 147.706 54.0907 147.65 54.2341L147.046 55.6778H146.458L145.855 54.2341L145.65 53.6513H145.639C145.65 53.8754 145.648 54.0697 145.634 54.2341L145.482 56.3183H144.805Z" fill="#434343"/>
<path d="M149.516 56.3183V52.5908H152.534V56.3183H151.857V53.1736H150.193V56.3183H149.516Z" fill="#434343"/>
<path d="M153.08 56.3183L154.387 52.5908H155.101L156.409 56.3183H155.716L155.395 55.3628H154.088L153.773 56.3183H153.08ZM154.256 54.8116H155.227L154.897 53.8141L154.75 53.2366H154.739C154.683 53.4816 154.634 53.674 154.592 53.8141L154.256 54.8116Z" fill="#434343"/>
<path d="M156.957 56.3183V52.5908H157.634V54.1711H159.341V52.5908H160.013V56.3183H159.341V54.7538H157.634V56.3183H156.957Z" fill="#434343"/>
<path d="M160.969 56.3183V52.5908H161.646V54.7433L161.609 55.3208H161.62C161.739 55.0793 161.844 54.8851 161.935 54.7381L163.342 52.5908H164.014V56.3183H163.342V54.1711L163.378 53.5936H163.368C163.252 53.8315 163.149 54.0241 163.058 54.1711L161.641 56.3183H160.969Z" fill="#434343"/>
<path d="M164.611 56.3183L165.399 55.0058L165.52 54.8116V54.8011C165.299 54.703 165.133 54.5596 165.021 54.3706C164.912 54.1816 164.858 53.9646 164.858 53.7196C164.858 53.4676 164.914 53.254 165.026 53.0791C165.142 52.9006 165.294 52.771 165.483 52.6906C165.637 52.624 165.873 52.5908 166.192 52.5908H167.399V56.3183H166.722V54.9271H166.176L165.367 56.3183H164.611ZM166.134 54.3601H166.722V53.1736H166.244C166.034 53.1736 165.878 53.2051 165.777 53.2681C165.623 53.3626 165.546 53.5217 165.546 53.7458C165.546 53.9417 165.598 54.094 165.703 54.2026C165.808 54.3076 165.952 54.3601 166.134 54.3601Z" fill="#434343"/>
</g>
</g>
<defs>
<clipPath id="clip0_504_242">
<rect width="168" height="58" fill="white"/>
</clipPath>
</defs>
</svg>
